<?xml version="1.0" encoding="UTF-8" standalone="no"?>
<!DOCTYPE svg PUBLIC "-//W3C//DTD SVG 1.1//EN" "http://www.w3.org/Graphics/SVG/1.1/DTD/svg11.dtd">
<svg width="100%" height="100%" viewBox="0 0 186 282" version="1.1" xmlns="http://www.w3.org/2000/svg" xmlns:xlink="http://www.w3.org/1999/xlink" xml:space="preserve" xmlns:serif="http://www.serif.com/" style="fill-rule:evenodd;clip-rule:evenodd;stroke-linejoin:round;stroke-miterlimit:2;">
    <g transform="matrix(1,0,0,1,-166.513,-730.144)">
        <g transform="matrix(0.477054,0,0,0.477054,20.8739,591.574)">
            <path d="M500.573,290.47C500.573,403.471 305.289,509.982 305.289,685.571C305.289,807.074 408.207,880.064 500,880.064C591.793,880.064 694.711,807.074 694.711,685.571C694.711,618.48 639.05,515.508 596.559,479.321C595.9,504.022 591.274,504.759 575.236,511.97C579.347,453.875 529.387,359.035 500.573,290.47Z" style="fill:rgb(255,45,71);"/>
            <clipPath id="_clip1">
                <path d="M500.573,290.47C500.573,403.471 305.289,509.982 305.289,685.571C305.289,807.074 408.207,880.064 500,880.064C591.793,880.064 694.711,807.074 694.711,685.571C694.711,618.48 639.05,515.508 596.559,479.321C595.9,504.022 591.274,504.759 575.236,511.97C579.347,453.875 529.387,359.035 500.573,290.47Z"/>
            </clipPath>
            <g clip-path="url(#_clip1)">
                <g>
                    <path d="M500.573,290.47C485.659,406.411 305.289,509.982 305.289,685.571C305.289,807.074 408.207,880.064 500,880.064C591.793,880.064 694.711,807.074 694.711,685.571C694.711,618.48 639.05,515.508 596.559,479.321C595.81,503.825 591.494,504.845 575.236,511.97C579.347,453.875 543.394,352.572 500.573,290.47Z" style="fill:rgb(255,81,0);"/>
                </g>
                <g transform="matrix(0.761519,0,0,0.761519,119.24,209.878)">
                    <path d="M500,880.064C591.793,880.064 694.711,807.074 694.711,685.571C694.711,509.982 500,371.481 500,246.931C500,371.481 305.289,509.982 305.289,685.571C305.289,807.074 408.207,880.064 500,880.064Z" style="fill:rgb(0,170,246);"/>
                    <path d="M500,246.931C500,371.481 694.711,509.982 694.711,685.571C694.711,807.074 591.793,880.064 500,880.064C408.207,880.064 305.289,807.074 305.289,685.571C305.289,509.982 500,371.481 500,246.931ZM500,838.773C572.316,838.773 653.42,781.293 653.42,685.571C653.42,588.366 585.981,504.739 534.241,427.561C521.814,409.023 510.207,390.754 500,372.766C489.793,390.755 478.186,409.024 465.759,427.561C414.019,504.739 346.58,588.366 346.58,685.571C346.58,781.293 427.684,838.773 500,838.773Z" style="fill:rgb(3,80,155);"/>
                </g>
                <g transform="matrix(0.766537,0,0,0.759284,-1213.88,309.28)">
                    <g transform="matrix(0.982559,-0.185951,0.185951,0.982559,1619.87,-17.4905)">
                        <path d="M469.845,871.803C426.967,685.155 509.868,655.67 760.814,582.812C777.879,683.348 727.889,777.557 663.466,822.252C648.184,838.343 560.895,893.62 469.845,871.803Z" style="fill:rgb(0,81,31);"/>
                        <path d="M452.667,875.877C438.859,815.771 437.907,770.829 449.626,735.278C463.752,692.428 495.926,661.968 549.68,635.938C598.819,612.144 666.953,591.569 755.992,565.718L774.881,560.233L778.194,579.751C796.413,687.085 743.297,787.631 674.73,835.982C654.64,855.134 562.199,912.232 465.714,889.112L455.124,886.575L452.667,875.877ZM469.845,871.803C560.895,893.62 648.184,838.343 663.466,822.252C727.889,777.557 777.879,683.348 760.814,582.812C509.868,655.67 426.967,685.155 469.845,871.803Z" style="fill:rgb(0,81,31);"/>
                    </g>
                    <g transform="matrix(0.982559,-0.185951,0.185951,0.982559,1619.87,-17.4905)">
                        <path d="M744.814,588.285C753.79,758.192 626.062,856.77 494.469,855.195C524.814,751.548 649.406,680.062 664.219,670.403C664.219,670.403 520.945,686.232 465.4,853.553C455.335,793.828 440.903,707.521 559.322,651.158C589.14,636.966 622.837,625.838 628.482,623.973C688.527,604.144 684.959,608.257 744.814,588.285Z" style="fill:rgb(24,184,67);"/>
                    </g>
                </g>
            </g>
        </g>
    </g>
</svg>
