<?xml version="1.0" encoding="UTF-8" standalone="no"?>
<!DOCTYPE svg PUBLIC "-//W3C//DTD SVG 1.1//EN" "http://www.w3.org/Graphics/SVG/1.1/DTD/svg11.dtd">
<svg width="100%" height="100%" viewBox="0 0 1965 411" version="1.1" xmlns="http://www.w3.org/2000/svg" xmlns:xlink="http://www.w3.org/1999/xlink" xml:space="preserve" xmlns:serif="http://www.serif.com/" style="fill-rule:evenodd;clip-rule:evenodd;stroke-linejoin:round;stroke-miterlimit:2;">
    <g transform="matrix(1,0,0,1,44.8642,-326.84)">
        <g transform="matrix(1.9917,0,0,1.9917,-66.7186,-307.55)">
            <g transform="matrix(0.239521,0,0,0.239521,-29.6248,281.469)">
                <path d="M500.573,290.47C500.573,403.471 305.289,509.982 305.289,685.571C305.289,807.074 408.207,880.064 500,880.064C591.793,880.064 694.711,807.074 694.711,685.571C694.711,618.48 639.05,515.508 596.559,479.321C595.81,503.825 581.013,511.133 564.755,518.258C568.866,460.164 529.387,359.035 500.573,290.47Z" style="fill:rgb(255,45,71);"/>
                <clipPath id="_clip1">
                    <path d="M500.573,290.47C500.573,403.471 305.289,509.982 305.289,685.571C305.289,807.074 408.207,880.064 500,880.064C591.793,880.064 694.711,807.074 694.711,685.571C694.711,618.48 639.05,515.508 596.559,479.321C595.81,503.825 581.013,511.133 564.755,518.258C568.866,460.164 529.387,359.035 500.573,290.47Z"/>
                </clipPath>
                <g clip-path="url(#_clip1)">
                    <path d="M500.573,290.47C485.659,406.411 305.289,509.982 305.289,685.571C305.289,807.074 408.207,880.064 500,880.064C591.793,880.064 694.711,807.074 694.711,685.571C694.711,618.48 639.05,515.508 596.559,479.321C595.81,503.825 581.013,511.133 564.755,518.258C568.866,460.164 543.394,352.572 500.573,290.47Z" style="fill:rgb(255,81,0);"/>
                    <path d="M308.732,723.239C311.027,495.527 512.667,432.9 500,290.47C500,408.837 272.96,526.204 308.732,723.239Z" style="fill:rgb(255,130,72);"/>
                    <g transform="matrix(1,0,0,1,0.57269,0)">
                        <path d="M500.573,290.47C485.659,406.411 305.289,509.982 305.289,685.571C305.289,807.074 408.207,880.064 500,880.064C591.793,880.064 694.711,807.074 694.711,685.571C694.711,618.48 639.05,515.508 596.559,479.321C595.81,503.825 581.013,511.133 564.755,518.258C568.866,460.164 543.394,352.572 500.573,290.47Z" style="fill:url(#_Linear2);"/>
                    </g>
                    <path d="M564.755,518.258C576.454,515.687 608.257,507.237 596.559,479.321C595.81,503.825 581.013,511.133 564.755,518.258Z" style="fill:rgb(255,130,72);"/>
                    <g transform="matrix(0.615264,0,0,0.615264,192.369,338.592)">
                        <path d="M500,880.064C342.094,873.22 285.186,774.367 290.837,669.336C294.866,594.432 344.95,501.048 396.544,429.634C422.252,394.051 488.737,314.153 500,246.931C502.844,373.298 304.557,514.629 307.337,688.625C309.215,806.123 402.47,875.302 500,880.064Z" style="fill:rgb(207,66,0);"/>
                    </g>
                    <g transform="matrix(0.606562,0,0,0.606562,-1200.76,654.235)">
                        <g transform="matrix(1.0091,0,0,1.0091,2299.38,-515.762)">
                            <path d="M500,880.064C591.793,880.064 694.711,807.074 694.711,685.571C694.711,509.982 500,371.481 500,246.931C500,371.481 305.289,509.982 305.289,685.571C305.289,807.074 408.207,880.064 500,880.064Z" style="fill:rgb(0,170,246);"/>
                            <path d="M500,246.931C500,371.481 694.711,509.982 694.711,685.571C694.711,807.074 591.793,880.064 500,880.064C408.207,880.064 305.289,807.074 305.289,685.571C305.289,509.982 500,371.481 500,246.931ZM500,838.773C572.316,838.773 653.42,781.293 653.42,685.571C653.42,588.366 585.981,504.739 534.241,427.561C521.814,409.023 510.207,390.754 500,372.766C489.793,390.755 478.186,409.024 465.759,427.561C414.019,504.739 346.58,588.366 346.58,685.571C346.58,781.293 427.684,838.773 500,838.773Z" style="fill:rgb(0,78,155);"/>
                        </g>
                        <g transform="matrix(1.0091,0,0,1.0091,2299.38,-515.762)">
                            <path d="M500,880.064C591.793,880.064 694.711,807.074 694.711,685.571C694.711,509.982 500,371.481 500,246.931C500,371.481 305.289,509.982 305.289,685.571C305.289,807.074 408.207,880.064 500,880.064Z" style="fill:url(#_Linear3);"/>
                        </g>
                    </g>
                    <g transform="matrix(0.753168,-0.14119,0.142539,0.746042,27.8116,296)">
                        <path d="M469.845,871.803C426.967,685.155 509.868,655.67 760.814,582.812C777.879,683.348 727.889,777.557 663.466,822.252C648.184,838.343 560.895,893.62 469.845,871.803Z" style="fill:rgb(5,100,42);"/>
                        <path d="M452.667,875.877C438.859,815.771 437.907,770.829 449.626,735.278C463.752,692.428 495.926,661.968 549.68,635.938C598.819,612.144 666.953,591.569 755.992,565.718L774.881,560.233L778.194,579.751C796.413,687.085 743.297,787.631 674.73,835.982C654.64,855.134 562.199,912.232 465.714,889.112L455.124,886.575L452.667,875.877ZM469.845,871.803C560.895,893.62 648.184,838.343 663.466,822.252C727.889,777.557 777.879,683.348 760.814,582.812C509.868,655.67 426.967,685.155 469.845,871.803Z" style="fill:rgb(5,100,42);"/>
                    </g>
                    <g transform="matrix(0.766537,0,0,0.759284,-1213.88,309.28)">
                        <g transform="matrix(0.982559,-0.185951,0.185951,0.982559,1619.87,-17.4905)">
                            <path d="M744.814,588.285C753.79,758.192 626.062,856.77 494.469,855.195C524.814,751.548 649.406,680.062 664.219,670.403C664.219,670.403 520.945,686.232 465.4,853.553C455.335,793.828 440.903,707.521 559.322,651.158C589.14,636.966 622.837,625.838 628.482,623.973C688.527,604.144 684.959,608.257 744.814,588.285Z" style="fill:rgb(24,184,67);"/>
                        </g>
                        <g transform="matrix(0.982559,-0.185951,0.185951,0.982559,1619.87,-17.4905)">
                            <path d="M664.219,670.403C578.827,731.215 528.188,793.064 511.123,854.865C507.921,855.054 497.454,855.345 494.469,855.195C523.816,752.895 647.908,677.997 664.219,670.403Z" style="fill:rgb(94,221,74);"/>
                        </g>
                        <g transform="matrix(0.982559,-0.185951,0.185951,0.982559,1619.87,-17.4905)">
                            <path d="M744.821,588.29C554.001,644.896 445.517,672.34 460.147,817.162C462.202,668.112 596.433,647.077 744.821,588.29Z" style="fill:rgb(94,221,74);"/>
                        </g>
                    </g>
                </g>
                <path d="M513.029,285.235C538.845,346.666 572.493,433.707 577.818,494.499C580.86,490.813 582.839,485.911 583.053,478.908L583.912,450.803L605.32,469.034C649.919,507.016 708.223,615.152 708.223,685.571C708.223,815.51 598.166,893.576 500,893.576C401.834,893.576 291.777,815.51 291.777,685.571C291.777,594.599 341.681,521.22 392.269,456.249C416.407,425.248 440.574,396.204 458.677,367.904C475.446,341.69 487.061,316.345 487.061,290.47L487.061,223.44L513.029,285.235ZM500.573,290.47C500.573,403.471 305.289,509.982 305.289,685.571C305.289,807.074 408.207,880.064 500,880.064C591.793,880.064 694.711,807.074 694.711,685.571C694.711,618.48 639.05,515.508 596.559,479.321C595.81,503.825 581.013,511.133 564.755,518.258C568.866,460.164 529.387,359.035 500.573,290.47Z" style="fill:white;"/>
            </g>
            <g transform="matrix(1.52968,0,0,1.73875,-23.0403,-259.331)">
                <rect x="36.961" y="345.291" width="74.051" height="92.722" style="fill:none;"/>
            </g>
        </g>
        <g transform="matrix(4.56319,0,0,4.56319,4246.47,-709.513)">
            <text x="-865.934px" y="276.308px" style="font-family:'Montserrat-ExtraBold', 'Montserrat';font-weight:800;font-size:50px;fill:rgb(220,42,20);">W<tspan x="-809.484px -778.084px -756.534px " y="276.308px 276.308px 276.308px ">ate</tspan>r He<tspan x="-616.084px -584.684px -563.134px " y="276.308px 276.308px 276.308px ">ate</tspan>r</text>
        </g>
        <g transform="matrix(4.56319,0,0,4.56319,4653.05,-709.513)">
            <text x="-776.834px" y="276.308px" style="font-family:'Montserrat-ExtraBold', 'Montserrat';font-weight:800;font-size:50px;fill:rgb(2,80,155);">He<tspan x="-705.184px -673.784px -652.234px " y="276.308px 276.308px 276.308px ">ate</tspan>r</text>
        </g>
        <g transform="matrix(4.56319,0,0,4.56319,3805.21,-709.513)">
            <g transform="matrix(50,0,0,50,-605.584,276.308)">
            </g>
            <text x="-769.234px" y="276.308px" style="font-family:'Montserrat-ExtraBold', 'Montserrat';font-weight:800;font-size:50px;fill:rgb(3,80,155);">W<tspan x="-712.784px -681.384px -659.834px " y="276.308px 276.308px 276.308px ">ate</tspan>r</text>
        </g>
        <g transform="matrix(2.3192,0,0,2.3192,2872.49,-291.148)">
            <g transform="matrix(50,0,0,50,-692.03,413.165)">
                <path d="M0.418,0.006C0.366,0.006 0.317,-0.002 0.272,-0.02C0.228,-0.038 0.189,-0.063 0.156,-0.095C0.123,-0.127 0.098,-0.165 0.079,-0.208C0.061,-0.251 0.052,-0.299 0.052,-0.35C0.052,-0.401 0.061,-0.449 0.079,-0.492C0.098,-0.535 0.123,-0.573 0.156,-0.605C0.189,-0.637 0.228,-0.662 0.273,-0.68C0.318,-0.698 0.366,-0.706 0.419,-0.706C0.47,-0.706 0.518,-0.698 0.562,-0.681C0.606,-0.664 0.644,-0.638 0.675,-0.604L0.628,-0.557C0.6,-0.586 0.568,-0.607 0.533,-0.621C0.498,-0.634 0.461,-0.64 0.421,-0.64C0.379,-0.64 0.34,-0.633 0.304,-0.619C0.268,-0.604 0.236,-0.584 0.21,-0.557C0.183,-0.531 0.162,-0.501 0.148,-0.465C0.133,-0.43 0.125,-0.392 0.125,-0.35C0.125,-0.308 0.133,-0.27 0.148,-0.235C0.162,-0.199 0.183,-0.169 0.21,-0.143C0.236,-0.116 0.268,-0.096 0.304,-0.081C0.34,-0.067 0.379,-0.06 0.421,-0.06C0.461,-0.06 0.498,-0.066 0.533,-0.08C0.568,-0.093 0.6,-0.115 0.628,-0.144L0.675,-0.097C0.644,-0.063 0.606,-0.037 0.562,-0.02C0.518,-0.002 0.47,0.006 0.418,0.006Z" style="fill:rgb(5,100,42);fill-rule:nonzero;"/>
            </g>
            <g transform="matrix(50,0,0,50,-658.333,413.165)">
                <path d="M0.42,0.006C0.367,0.006 0.318,-0.003 0.273,-0.02C0.228,-0.038 0.189,-0.063 0.156,-0.095C0.123,-0.128 0.098,-0.165 0.079,-0.208C0.061,-0.252 0.052,-0.299 0.052,-0.35C0.052,-0.401 0.061,-0.448 0.079,-0.492C0.098,-0.535 0.123,-0.572 0.156,-0.605C0.19,-0.637 0.229,-0.662 0.273,-0.68C0.318,-0.698 0.367,-0.706 0.42,-0.706C0.473,-0.706 0.521,-0.698 0.566,-0.68C0.611,-0.662 0.649,-0.637 0.682,-0.605C0.716,-0.573 0.741,-0.535 0.76,-0.492C0.778,-0.449 0.787,-0.401 0.787,-0.35C0.787,-0.299 0.778,-0.251 0.76,-0.208C0.741,-0.165 0.716,-0.127 0.682,-0.095C0.649,-0.063 0.611,-0.038 0.566,-0.02C0.521,-0.002 0.473,0.006 0.42,0.006ZM0.42,-0.06C0.462,-0.06 0.5,-0.067 0.536,-0.081C0.572,-0.096 0.603,-0.116 0.629,-0.142C0.656,-0.169 0.677,-0.2 0.691,-0.235C0.706,-0.27 0.713,-0.308 0.713,-0.35C0.713,-0.392 0.706,-0.43 0.691,-0.465C0.677,-0.5 0.656,-0.531 0.63,-0.557C0.603,-0.584 0.572,-0.604 0.536,-0.619C0.501,-0.633 0.462,-0.64 0.42,-0.64C0.378,-0.64 0.339,-0.633 0.303,-0.619C0.267,-0.604 0.236,-0.584 0.209,-0.557C0.183,-0.531 0.162,-0.5 0.148,-0.465C0.133,-0.43 0.125,-0.392 0.125,-0.35C0.125,-0.308 0.133,-0.27 0.148,-0.235C0.162,-0.2 0.183,-0.169 0.209,-0.142C0.236,-0.116 0.267,-0.096 0.303,-0.081C0.339,-0.067 0.378,-0.06 0.42,-0.06Z" style="fill:rgb(5,100,42);fill-rule:nonzero;"/>
            </g>
            <g transform="matrix(50,0,0,50,-616.392,413.165)">
                <path d="M0.114,-0L0.114,-0.7L0.175,-0.7L0.495,-0.154L0.463,-0.154L0.78,-0.7L0.841,-0.7L0.841,-0L0.77,-0L0.77,-0.589L0.787,-0.589L0.495,-0.089L0.46,-0.089L0.166,-0.589L0.185,-0.589L0.185,-0L0.114,-0Z" style="fill:rgb(5,100,42);fill-rule:nonzero;"/>
            </g>
            <g transform="matrix(50,0,0,50,-568.62,413.165)">
                <path d="M0.114,-0L0.114,-0.7L0.376,-0.7C0.435,-0.7 0.486,-0.69 0.529,-0.671C0.572,-0.652 0.605,-0.625 0.628,-0.589C0.651,-0.553 0.662,-0.511 0.662,-0.46C0.662,-0.411 0.651,-0.368 0.628,-0.332C0.605,-0.296 0.572,-0.269 0.529,-0.25C0.486,-0.231 0.435,-0.221 0.376,-0.221L0.155,-0.221L0.188,-0.256L0.188,-0L0.114,-0ZM0.188,-0.25L0.155,-0.286L0.374,-0.286C0.444,-0.286 0.497,-0.301 0.534,-0.331C0.57,-0.362 0.588,-0.405 0.588,-0.46C0.588,-0.516 0.57,-0.56 0.534,-0.59C0.497,-0.62 0.444,-0.636 0.374,-0.636L0.155,-0.636L0.188,-0.671L0.188,-0.25Z" style="fill:rgb(5,100,42);fill-rule:nonzero;"/>
            </g>
            <g transform="matrix(50,0,0,50,-534.974,413.165)">
                <path d="M0.002,-0L0.322,-0.7L0.395,-0.7L0.715,-0L0.637,-0L0.343,-0.657L0.373,-0.657L0.079,-0L0.002,-0ZM0.128,-0.187L0.15,-0.247L0.557,-0.247L0.58,-0.187L0.128,-0.187Z" style="fill:rgb(5,100,42);fill-rule:nonzero;"/>
            </g>
            <g transform="matrix(50,0,0,50,-499.1,413.165)">
                <path d="M0.114,-0L0.114,-0.7L0.175,-0.7L0.658,-0.092L0.626,-0.092L0.626,-0.7L0.699,-0.7L0.699,-0L0.638,-0L0.156,-0.608L0.188,-0.608L0.188,-0L0.114,-0Z" style="fill:rgb(5,100,42);fill-rule:nonzero;"/>
            </g>
            <g transform="matrix(50,0,0,50,-459.192,413.165)">
                <path d="M0.281,-0L0.281,-0.26L0.298,-0.214L0.001,-0.7L0.08,-0.7L0.341,-0.273L0.299,-0.273L0.56,-0.7L0.634,-0.7L0.337,-0.214L0.354,-0.26L0.354,-0L0.281,-0Z" style="fill:rgb(5,100,42);fill-rule:nonzero;"/>
            </g>
            <g transform="matrix(50,0,0,50,-427.445,413.165)">
            </g>
        </g>
        <g transform="matrix(2.3192,0,0,2.3192,2088.12,-291.148)">
            <g transform="matrix(50,0,0,50,-754.408,413.165)">
                <path d="M0.114,-0L0.114,-0.7L0.376,-0.7C0.465,-0.7 0.535,-0.679 0.586,-0.637C0.637,-0.594 0.662,-0.536 0.662,-0.46C0.662,-0.411 0.651,-0.368 0.628,-0.333C0.605,-0.297 0.572,-0.27 0.529,-0.251C0.486,-0.231 0.435,-0.222 0.376,-0.222L0.155,-0.222L0.188,-0.256L0.188,-0L0.114,-0ZM0.592,-0L0.412,-0.254L0.492,-0.254L0.673,-0L0.592,-0ZM0.188,-0.25L0.155,-0.285L0.374,-0.285C0.444,-0.285 0.497,-0.3 0.534,-0.331C0.57,-0.362 0.588,-0.405 0.588,-0.46C0.588,-0.516 0.57,-0.56 0.534,-0.59C0.497,-0.62 0.444,-0.636 0.374,-0.636L0.155,-0.636L0.188,-0.671L0.188,-0.25Z" style="fill:rgb(5,100,42);fill-rule:nonzero;"/>
            </g>
            <g transform="matrix(50,0,0,50,-718.24,413.165)">
                <path d="M0.114,-0L0.114,-0.7L0.594,-0.7L0.594,-0.636L0.188,-0.636L0.188,-0.064L0.609,-0.064L0.609,-0L0.114,-0ZM0.18,-0.324L0.18,-0.387L0.55,-0.387L0.55,-0.324L0.18,-0.324Z" style="fill:rgb(5,100,42);fill-rule:nonzero;"/>
            </g>
            <g transform="matrix(50,0,0,50,-684.783,413.165)">
                <path d="M0.114,-0L0.114,-0.7L0.376,-0.7C0.435,-0.7 0.486,-0.69 0.529,-0.671C0.572,-0.652 0.605,-0.625 0.628,-0.589C0.651,-0.553 0.662,-0.511 0.662,-0.46C0.662,-0.411 0.651,-0.368 0.628,-0.332C0.605,-0.296 0.572,-0.269 0.529,-0.25C0.486,-0.231 0.435,-0.221 0.376,-0.221L0.155,-0.221L0.188,-0.256L0.188,-0L0.114,-0ZM0.188,-0.25L0.155,-0.286L0.374,-0.286C0.444,-0.286 0.497,-0.301 0.534,-0.331C0.57,-0.362 0.588,-0.405 0.588,-0.46C0.588,-0.516 0.57,-0.56 0.534,-0.59C0.497,-0.62 0.444,-0.636 0.374,-0.636L0.155,-0.636L0.188,-0.671L0.188,-0.25Z" style="fill:rgb(5,100,42);fill-rule:nonzero;"/>
            </g>
            <g transform="matrix(50,0,0,50,-649.387,413.165)">
                <path d="M0.114,-0L0.114,-0.7L0.188,-0.7L0.188,-0.064L0.58,-0.064L0.58,-0L0.114,-0Z" style="fill:rgb(5,100,42);fill-rule:nonzero;"/>
            </g>
            <g transform="matrix(50,0,0,50,-619.934,413.165)">
                <path d="M0.002,-0L0.322,-0.7L0.395,-0.7L0.715,-0L0.637,-0L0.343,-0.657L0.373,-0.657L0.079,-0L0.002,-0ZM0.128,-0.187L0.15,-0.247L0.557,-0.247L0.58,-0.187L0.128,-0.187Z" style="fill:rgb(5,100,42);fill-rule:nonzero;"/>
            </g>
            <g transform="matrix(50,0,0,50,-584.56,413.165)">
                <path d="M0.418,0.006C0.366,0.006 0.317,-0.002 0.272,-0.02C0.228,-0.038 0.189,-0.063 0.156,-0.095C0.123,-0.127 0.098,-0.165 0.079,-0.208C0.061,-0.251 0.052,-0.299 0.052,-0.35C0.052,-0.401 0.061,-0.449 0.079,-0.492C0.098,-0.535 0.123,-0.573 0.156,-0.605C0.189,-0.637 0.228,-0.662 0.273,-0.68C0.318,-0.698 0.366,-0.706 0.419,-0.706C0.47,-0.706 0.518,-0.698 0.562,-0.681C0.606,-0.664 0.644,-0.638 0.675,-0.604L0.628,-0.557C0.6,-0.586 0.568,-0.607 0.533,-0.621C0.498,-0.634 0.461,-0.64 0.421,-0.64C0.379,-0.64 0.34,-0.633 0.304,-0.619C0.268,-0.604 0.236,-0.584 0.21,-0.557C0.183,-0.531 0.162,-0.501 0.148,-0.465C0.133,-0.43 0.125,-0.392 0.125,-0.35C0.125,-0.308 0.133,-0.27 0.148,-0.235C0.162,-0.199 0.183,-0.169 0.21,-0.143C0.236,-0.116 0.268,-0.096 0.304,-0.081C0.34,-0.067 0.379,-0.06 0.421,-0.06C0.461,-0.06 0.498,-0.066 0.533,-0.08C0.568,-0.093 0.6,-0.115 0.628,-0.144L0.675,-0.097C0.644,-0.063 0.606,-0.037 0.562,-0.02C0.518,-0.002 0.47,0.006 0.418,0.006Z" style="fill:rgb(5,100,42);fill-rule:nonzero;"/>
            </g>
            <g transform="matrix(50,0,0,50,-549.114,413.165)">
                <path d="M0.114,-0L0.114,-0.7L0.594,-0.7L0.594,-0.636L0.188,-0.636L0.188,-0.064L0.609,-0.064L0.609,-0L0.114,-0ZM0.18,-0.324L0.18,-0.387L0.55,-0.387L0.55,-0.324L0.18,-0.324Z" style="fill:rgb(5,100,42);fill-rule:nonzero;"/>
            </g>
            <g transform="matrix(50,0,0,50,-515.657,413.165)">
                <path d="M0.114,-0L0.114,-0.7L0.175,-0.7L0.495,-0.154L0.463,-0.154L0.78,-0.7L0.841,-0.7L0.841,-0L0.77,-0L0.77,-0.589L0.787,-0.589L0.495,-0.089L0.46,-0.089L0.166,-0.589L0.185,-0.589L0.185,-0L0.114,-0Z" style="fill:rgb(5,100,42);fill-rule:nonzero;"/>
            </g>
            <g transform="matrix(50,0,0,50,-467.885,413.165)">
                <path d="M0.114,-0L0.114,-0.7L0.594,-0.7L0.594,-0.636L0.188,-0.636L0.188,-0.064L0.609,-0.064L0.609,-0L0.114,-0ZM0.18,-0.324L0.18,-0.387L0.55,-0.387L0.55,-0.324L0.18,-0.324Z" style="fill:rgb(5,100,42);fill-rule:nonzero;"/>
            </g>
            <g transform="matrix(50,0,0,50,-434.429,413.165)">
                <path d="M0.114,-0L0.114,-0.7L0.175,-0.7L0.658,-0.092L0.626,-0.092L0.626,-0.7L0.699,-0.7L0.699,-0L0.638,-0L0.156,-0.608L0.188,-0.608L0.188,-0L0.114,-0Z" style="fill:rgb(5,100,42);fill-rule:nonzero;"/>
            </g>
            <g transform="matrix(50,0,0,50,-393.77,413.165)">
                <path d="M0.25,-0L0.25,-0.636L0.004,-0.636L0.004,-0.7L0.57,-0.7L0.57,-0.636L0.324,-0.636L0.324,-0L0.25,-0Z" style="fill:rgb(5,100,42);fill-rule:nonzero;"/>
            </g>
            <g transform="matrix(50,0,0,50,-365.067,413.165)">
            </g>
        </g>
    </g>
    <defs>
        <linearGradient id="_Linear2" x1="0" y1="0" x2="1" y2="0" gradientUnits="userSpaceOnUse" gradientTransform="matrix(180.215,140.428,-140.428,180.215,319.213,526.622)"><stop offset="0" style="stop-color:white;stop-opacity:0.25"/><stop offset="0.45" style="stop-color:white;stop-opacity:0.05"/><stop offset="1" style="stop-color:white;stop-opacity:0"/></linearGradient>
        <linearGradient id="_Linear3" x1="0" y1="0" x2="1" y2="0" gradientUnits="userSpaceOnUse" gradientTransform="matrix(356.831,216.966,-216.966,356.831,337.88,586.988)"><stop offset="0" style="stop-color:white;stop-opacity:0.25"/><stop offset="0.44" style="stop-color:rgb(194,194,194);stop-opacity:0.05"/><stop offset="1" style="stop-color:rgb(179,179,179);stop-opacity:0"/></linearGradient>
    </defs>
</svg>
