<?xml version="1.0" encoding="UTF-8" standalone="no"?>
<!DOCTYPE svg PUBLIC "-//W3C//DTD SVG 1.1//EN" "http://www.w3.org/Graphics/SVG/1.1/DTD/svg11.dtd">
<svg width="100%" height="100%" viewBox="0 0 890 190" version="1.1" xmlns="http://www.w3.org/2000/svg" xmlns:xlink="http://www.w3.org/1999/xlink" xml:space="preserve" xmlns:serif="http://www.serif.com/" style="fill-rule:evenodd;clip-rule:evenodd;stroke-linejoin:round;stroke-miterlimit:2;">
    <g transform="matrix(1,0,0,1,-2335.01,-1680.23)">
        <g transform="matrix(1,0,0,1,1715.34,1467.76)">
            <g transform="matrix(0.801044,0,0,0.73912,223.68,81.7828)">
                <rect x="494.337" y="176.815" width="1111.05" height="257.062" style="fill:none;"/>
            </g>
            <g transform="matrix(0.968491,0,0,0.974474,20.1553,5.93404)">
                <g>
                    <g transform="matrix(7.55505,0,-2.02301e-16,11.9189,-1132.07,-8288.3)">
                        <g transform="matrix(11.6481,0,0,11.6481,301.722,723.103)">
                            <path d="M0.563,-0L0.563,-0.7L0.725,-0.7L0.725,-0L0.563,-0ZM0.083,-0L0.083,-0.7L0.245,-0.7L0.245,-0L0.083,-0ZM0.233,-0.287L0.233,-0.424L0.575,-0.424L0.575,-0.287L0.233,-0.287Z" style="fill:rgb(255,125,0);fill-rule:nonzero;"/>
                        </g>
                        <g transform="matrix(11.6481,0,0,11.6481,311.137,723.103)">
                            <path d="M0.083,-0L0.083,-0.7L0.612,-0.7L0.612,-0.57L0.244,-0.57L0.244,-0.13L0.625,-0.13L0.625,-0L0.083,-0ZM0.232,-0.292L0.232,-0.418L0.569,-0.418L0.569,-0.292L0.232,-0.292Z" style="fill:rgb(255,125,0);fill-rule:nonzero;"/>
                        </g>
                        <g transform="matrix(11.6481,0,0,11.6481,318.955,723.103)">
                            <path d="M-0.009,-0L0.303,-0.7L0.463,-0.7L0.776,-0L0.606,-0L0.35,-0.618L0.414,-0.618L0.157,-0L-0.009,-0ZM0.147,-0.15L0.19,-0.273L0.55,-0.273L0.594,-0.15L0.147,-0.15Z" style="fill:rgb(255,125,0);fill-rule:nonzero;"/>
                        </g>
                        <g transform="matrix(11.6481,0,0,11.6481,327.471,723.103)">
                            <path d="M0.228,-0L0.228,-0.568L0.004,-0.568L0.004,-0.7L0.614,-0.7L0.614,-0.568L0.39,-0.568L0.39,-0L0.228,-0Z" style="fill:rgb(255,125,0);fill-rule:nonzero;"/>
                        </g>
                        <g transform="matrix(11.6481,0,0,11.6481,334.668,723.103)">
                            <path d="M0.083,-0L0.083,-0.7L0.612,-0.7L0.612,-0.57L0.244,-0.57L0.244,-0.13L0.625,-0.13L0.625,-0L0.083,-0ZM0.232,-0.292L0.232,-0.418L0.569,-0.418L0.569,-0.292L0.232,-0.292Z" style="fill:rgb(255,125,0);fill-rule:nonzero;"/>
                        </g>
                        <g transform="matrix(11.6481,0,0,11.6481,342.486,723.103)">
                            <path d="M0.083,-0L0.083,-0.7L0.382,-0.7C0.479,-0.7 0.555,-0.677 0.609,-0.632C0.663,-0.587 0.69,-0.525 0.69,-0.446C0.69,-0.394 0.678,-0.349 0.653,-0.312C0.629,-0.274 0.594,-0.245 0.548,-0.225C0.503,-0.205 0.448,-0.195 0.386,-0.195L0.173,-0.195L0.245,-0.266L0.245,-0L0.083,-0ZM0.529,-0L0.353,-0.254L0.526,-0.254L0.703,-0L0.529,-0ZM0.245,-0.248L0.173,-0.324L0.377,-0.324C0.427,-0.324 0.464,-0.335 0.489,-0.357C0.514,-0.378 0.526,-0.408 0.526,-0.446C0.526,-0.485 0.514,-0.515 0.489,-0.536C0.464,-0.557 0.427,-0.568 0.377,-0.568L0.173,-0.568L0.245,-0.645L0.245,-0.248Z" style="fill:rgb(255,125,0);fill-rule:nonzero;"/>
                        </g>
                        <g transform="matrix(11.6481,0,0,11.6481,351.051,723.103)">
                        </g>
                    </g>
                    <g transform="matrix(7.54737,0,-2.02095e-16,11.9068,-1495.1,-8279.83)">
                        <g transform="matrix(11.6481,0,0,11.6481,301.722,723.103)">
                            <path d="M0.252,-0L0.022,-0.7L0.19,-0.7L0.389,-0.08L0.305,-0.08L0.513,-0.7L0.663,-0.7L0.863,-0.08L0.782,-0.08L0.986,-0.7L1.141,-0.7L0.912,-0L0.738,-0L0.561,-0.544L0.607,-0.544L0.425,-0L0.252,-0Z" style="fill:rgb(4,173,204);fill-rule:nonzero;"/>
                        </g>
                        <g transform="matrix(11.6481,0,0,11.6481,314.828,723.103)">
                            <path d="M-0.009,-0L0.303,-0.7L0.463,-0.7L0.776,-0L0.606,-0L0.35,-0.618L0.414,-0.618L0.157,-0L-0.009,-0ZM0.147,-0.15L0.19,-0.273L0.55,-0.273L0.594,-0.15L0.147,-0.15Z" style="fill:rgb(4,173,204);fill-rule:nonzero;"/>
                        </g>
                        <g transform="matrix(11.6481,0,0,11.6481,323.345,723.103)">
                            <path d="M0.228,-0L0.228,-0.568L0.004,-0.568L0.004,-0.7L0.614,-0.7L0.614,-0.568L0.39,-0.568L0.39,-0L0.228,-0Z" style="fill:rgb(4,173,204);fill-rule:nonzero;"/>
                        </g>
                        <g transform="matrix(11.6481,0,0,11.6481,330.541,723.103)">
                            <path d="M0.083,-0L0.083,-0.7L0.612,-0.7L0.612,-0.57L0.244,-0.57L0.244,-0.13L0.625,-0.13L0.625,-0L0.083,-0ZM0.232,-0.292L0.232,-0.418L0.569,-0.418L0.569,-0.292L0.232,-0.292Z" style="fill:rgb(4,173,204);fill-rule:nonzero;"/>
                        </g>
                        <g transform="matrix(11.6481,0,0,11.6481,338.359,723.103)">
                            <path d="M0.083,-0L0.083,-0.7L0.382,-0.7C0.479,-0.7 0.555,-0.677 0.609,-0.632C0.663,-0.587 0.69,-0.525 0.69,-0.446C0.69,-0.394 0.678,-0.349 0.653,-0.312C0.629,-0.274 0.594,-0.245 0.548,-0.225C0.503,-0.205 0.448,-0.195 0.386,-0.195L0.173,-0.195L0.245,-0.266L0.245,-0L0.083,-0ZM0.529,-0L0.353,-0.254L0.526,-0.254L0.703,-0L0.529,-0ZM0.245,-0.248L0.173,-0.324L0.377,-0.324C0.427,-0.324 0.464,-0.335 0.489,-0.357C0.514,-0.378 0.526,-0.408 0.526,-0.446C0.526,-0.485 0.514,-0.515 0.489,-0.536C0.464,-0.557 0.427,-0.568 0.377,-0.568L0.173,-0.568L0.245,-0.645L0.245,-0.248Z" style="fill:rgb(4,173,204);fill-rule:nonzero;"/>
                        </g>
                        <g transform="matrix(11.6481,0,0,11.6481,346.925,723.103)">
                        </g>
                    </g>
                    <g transform="matrix(4.61851,3.38851e-17,3.38851e-17,4.6671,-598.561,-2988.83)">
                        <g transform="matrix(11.6481,0,0,11.6481,301.722,723.103)">
                            <path d="M0.105,-0L0.105,-0.7L0.378,-0.7C0.469,-0.7 0.54,-0.678 0.592,-0.635C0.644,-0.592 0.67,-0.532 0.67,-0.456C0.67,-0.405 0.659,-0.362 0.635,-0.326C0.612,-0.29 0.578,-0.262 0.535,-0.242C0.491,-0.223 0.439,-0.213 0.378,-0.213L0.16,-0.213L0.205,-0.259L0.205,-0L0.105,-0ZM0.573,-0L0.395,-0.254L0.502,-0.254L0.682,-0L0.573,-0ZM0.205,-0.249L0.16,-0.298L0.375,-0.298C0.439,-0.298 0.488,-0.312 0.521,-0.339C0.554,-0.367 0.57,-0.406 0.57,-0.456C0.57,-0.506 0.554,-0.545 0.521,-0.572C0.488,-0.6 0.439,-0.613 0.375,-0.613L0.16,-0.613L0.205,-0.663L0.205,-0.249Z" style="fill-rule:nonzero;"/>
                        </g>
                        <g transform="matrix(11.6481,0,0,11.6481,310.19,723.103)">
                            <path d="M0.105,-0L0.105,-0.7L0.599,-0.7L0.599,-0.613L0.205,-0.613L0.205,-0.087L0.613,-0.087L0.613,-0L0.105,-0ZM0.196,-0.313L0.196,-0.398L0.556,-0.398L0.556,-0.313L0.196,-0.313Z" style="fill-rule:nonzero;"/>
                        </g>
                        <g transform="matrix(11.6481,0,0,11.6481,317.991,723.103)">
                            <path d="M0.105,-0L0.105,-0.7L0.378,-0.7C0.439,-0.7 0.491,-0.69 0.535,-0.671C0.578,-0.651 0.612,-0.623 0.635,-0.587C0.659,-0.55 0.67,-0.507 0.67,-0.456C0.67,-0.405 0.659,-0.362 0.635,-0.325C0.612,-0.289 0.578,-0.261 0.535,-0.241C0.491,-0.222 0.439,-0.212 0.378,-0.212L0.16,-0.212L0.205,-0.259L0.205,-0L0.105,-0ZM0.205,-0.249L0.16,-0.299L0.375,-0.299C0.439,-0.299 0.488,-0.312 0.521,-0.34C0.554,-0.367 0.57,-0.406 0.57,-0.456C0.57,-0.506 0.554,-0.545 0.521,-0.572C0.488,-0.6 0.439,-0.613 0.375,-0.613L0.16,-0.613L0.205,-0.663L0.205,-0.249Z" style="fill-rule:nonzero;"/>
                        </g>
                        <g transform="matrix(11.6481,0,0,11.6481,326.282,723.103)">
                            <path d="M0.105,-0L0.105,-0.7L0.205,-0.7L0.205,-0.087L0.584,-0.087L0.584,-0L0.105,-0Z" style="fill-rule:nonzero;"/>
                        </g>
                        <g transform="matrix(11.6481,0,0,11.6481,333.195,723.103)">
                            <path d="M-0.001,-0L0.316,-0.7L0.415,-0.7L0.733,-0L0.628,-0L0.345,-0.644L0.385,-0.644L0.102,-0L-0.001,-0ZM0.134,-0.175L0.161,-0.255L0.555,-0.255L0.584,-0.175L0.134,-0.175Z" style="fill-rule:nonzero;"/>
                        </g>
                        <g transform="matrix(11.6481,0,0,11.6481,341.604,723.103)">
                            <path d="M0.418,0.008C0.365,0.008 0.316,-0.001 0.271,-0.018C0.226,-0.036 0.187,-0.061 0.153,-0.093C0.12,-0.126 0.094,-0.164 0.076,-0.207C0.057,-0.251 0.048,-0.298 0.048,-0.35C0.048,-0.402 0.057,-0.449 0.076,-0.493C0.094,-0.536 0.12,-0.574 0.154,-0.607C0.187,-0.639 0.227,-0.664 0.272,-0.682C0.317,-0.699 0.366,-0.708 0.419,-0.708C0.473,-0.708 0.523,-0.699 0.568,-0.681C0.614,-0.662 0.653,-0.635 0.685,-0.599L0.62,-0.536C0.593,-0.564 0.563,-0.585 0.53,-0.599C0.497,-0.612 0.461,-0.619 0.423,-0.619C0.384,-0.619 0.347,-0.612 0.314,-0.599C0.28,-0.586 0.251,-0.567 0.226,-0.543C0.201,-0.519 0.182,-0.49 0.169,-0.457C0.155,-0.425 0.148,-0.389 0.148,-0.35C0.148,-0.311 0.155,-0.275 0.169,-0.243C0.182,-0.21 0.201,-0.181 0.226,-0.157C0.251,-0.133 0.28,-0.114 0.314,-0.101C0.347,-0.088 0.384,-0.081 0.423,-0.081C0.461,-0.081 0.497,-0.088 0.53,-0.101C0.563,-0.115 0.593,-0.136 0.62,-0.165L0.685,-0.102C0.653,-0.066 0.614,-0.039 0.568,-0.02C0.523,-0.001 0.472,0.008 0.418,0.008Z" style="fill-rule:nonzero;"/>
                        </g>
                        <g transform="matrix(11.6481,0,0,11.6481,349.907,723.103)">
                            <path d="M0.105,-0L0.105,-0.7L0.599,-0.7L0.599,-0.613L0.205,-0.613L0.205,-0.087L0.613,-0.087L0.613,-0L0.105,-0ZM0.196,-0.313L0.196,-0.398L0.556,-0.398L0.556,-0.313L0.196,-0.313Z" style="fill-rule:nonzero;"/>
                        </g>
                        <g transform="matrix(11.6481,0,0,11.6481,357.708,723.103)">
                            <path d="M0.105,-0L0.105,-0.7L0.187,-0.7L0.501,-0.171L0.457,-0.171L0.767,-0.7L0.849,-0.7L0.85,-0L0.754,-0L0.753,-0.549L0.776,-0.549L0.5,-0.085L0.454,-0.085L0.176,-0.549L0.201,-0.549L0.201,-0L0.105,-0Z" style="fill-rule:nonzero;"/>
                        </g>
                        <g transform="matrix(11.6481,0,0,11.6481,368.834,723.103)">
                            <path d="M0.105,-0L0.105,-0.7L0.599,-0.7L0.599,-0.613L0.205,-0.613L0.205,-0.087L0.613,-0.087L0.613,-0L0.105,-0ZM0.196,-0.313L0.196,-0.398L0.556,-0.398L0.556,-0.313L0.196,-0.313Z" style="fill-rule:nonzero;"/>
                        </g>
                        <g transform="matrix(11.6481,0,0,11.6481,376.634,723.103)">
                            <path d="M0.105,-0L0.105,-0.7L0.187,-0.7L0.65,-0.125L0.607,-0.125L0.607,-0.7L0.707,-0.7L0.707,-0L0.625,-0L0.162,-0.575L0.205,-0.575L0.205,-0L0.105,-0Z" style="fill-rule:nonzero;"/>
                        </g>
                        <g transform="matrix(11.6481,0,0,11.6481,386.09,723.103)">
                            <path d="M0.244,-0L0.244,-0.613L0.004,-0.613L0.004,-0.7L0.583,-0.7L0.583,-0.613L0.343,-0.613L0.343,-0L0.244,-0Z" style="fill-rule:nonzero;"/>
                        </g>
                        <g transform="matrix(11.6481,0,0,11.6481,392.925,723.103)">
                        </g>
                        <g transform="matrix(11.6481,0,0,11.6481,396.054,723.103)">
                            <path d="M0.418,0.008C0.365,0.008 0.316,-0.001 0.271,-0.018C0.226,-0.036 0.187,-0.061 0.153,-0.093C0.12,-0.126 0.094,-0.164 0.076,-0.207C0.057,-0.251 0.048,-0.298 0.048,-0.35C0.048,-0.402 0.057,-0.449 0.076,-0.493C0.094,-0.536 0.12,-0.574 0.154,-0.607C0.187,-0.639 0.227,-0.664 0.272,-0.682C0.317,-0.699 0.366,-0.708 0.419,-0.708C0.473,-0.708 0.523,-0.699 0.568,-0.681C0.614,-0.662 0.653,-0.635 0.685,-0.599L0.62,-0.536C0.593,-0.564 0.563,-0.585 0.53,-0.599C0.497,-0.612 0.461,-0.619 0.423,-0.619C0.384,-0.619 0.347,-0.612 0.314,-0.599C0.28,-0.586 0.251,-0.567 0.226,-0.543C0.201,-0.519 0.182,-0.49 0.169,-0.457C0.155,-0.425 0.148,-0.389 0.148,-0.35C0.148,-0.311 0.155,-0.275 0.169,-0.243C0.182,-0.21 0.201,-0.181 0.226,-0.157C0.251,-0.133 0.28,-0.114 0.314,-0.101C0.347,-0.088 0.384,-0.081 0.423,-0.081C0.461,-0.081 0.497,-0.088 0.53,-0.101C0.563,-0.115 0.593,-0.136 0.62,-0.165L0.685,-0.102C0.653,-0.066 0.614,-0.039 0.568,-0.02C0.523,-0.001 0.472,0.008 0.418,0.008Z" style="fill-rule:nonzero;"/>
                        </g>
                        <g transform="matrix(11.6481,0,0,11.6481,403.949,723.103)">
                            <path d="M0.421,0.008C0.367,0.008 0.318,-0.001 0.272,-0.019C0.227,-0.037 0.187,-0.062 0.154,-0.094C0.12,-0.126 0.094,-0.164 0.076,-0.208C0.057,-0.251 0.048,-0.298 0.048,-0.35C0.048,-0.402 0.057,-0.449 0.076,-0.492C0.094,-0.536 0.12,-0.574 0.154,-0.606C0.188,-0.638 0.227,-0.663 0.272,-0.681C0.318,-0.699 0.367,-0.708 0.421,-0.708C0.474,-0.708 0.523,-0.699 0.569,-0.681C0.614,-0.664 0.653,-0.639 0.686,-0.606C0.72,-0.574 0.746,-0.536 0.764,-0.493C0.783,-0.449 0.792,-0.402 0.792,-0.35C0.792,-0.298 0.783,-0.251 0.764,-0.207C0.746,-0.164 0.72,-0.126 0.686,-0.094C0.653,-0.061 0.614,-0.036 0.569,-0.019C0.523,-0.001 0.474,0.008 0.421,0.008ZM0.421,-0.081C0.46,-0.081 0.495,-0.088 0.528,-0.101C0.561,-0.114 0.59,-0.133 0.614,-0.158C0.639,-0.182 0.658,-0.21 0.672,-0.243C0.685,-0.276 0.692,-0.311 0.692,-0.35C0.692,-0.389 0.685,-0.425 0.672,-0.457C0.658,-0.49 0.639,-0.518 0.615,-0.542C0.59,-0.567 0.561,-0.585 0.528,-0.599C0.496,-0.612 0.46,-0.619 0.421,-0.619C0.382,-0.619 0.345,-0.612 0.312,-0.599C0.279,-0.585 0.25,-0.567 0.226,-0.542C0.201,-0.518 0.182,-0.489 0.169,-0.457C0.155,-0.424 0.148,-0.389 0.148,-0.35C0.148,-0.312 0.155,-0.276 0.169,-0.243C0.182,-0.211 0.201,-0.182 0.226,-0.158C0.25,-0.133 0.279,-0.114 0.312,-0.101C0.345,-0.088 0.382,-0.081 0.421,-0.081Z" style="fill-rule:nonzero;"/>
                        </g>
                        <g transform="matrix(11.6481,0,0,11.6481,413.736,723.103)">
                            <path d="M0.105,-0L0.105,-0.7L0.187,-0.7L0.501,-0.171L0.457,-0.171L0.767,-0.7L0.849,-0.7L0.85,-0L0.754,-0L0.753,-0.549L0.776,-0.549L0.5,-0.085L0.454,-0.085L0.176,-0.549L0.201,-0.549L0.201,-0L0.105,-0Z" style="fill-rule:nonzero;"/>
                        </g>
                        <g transform="matrix(11.6481,0,0,11.6481,424.862,723.103)">
                            <path d="M0.105,-0L0.105,-0.7L0.378,-0.7C0.439,-0.7 0.491,-0.69 0.535,-0.671C0.578,-0.651 0.612,-0.623 0.635,-0.587C0.659,-0.55 0.67,-0.507 0.67,-0.456C0.67,-0.405 0.659,-0.362 0.635,-0.325C0.612,-0.289 0.578,-0.261 0.535,-0.241C0.491,-0.222 0.439,-0.212 0.378,-0.212L0.16,-0.212L0.205,-0.259L0.205,-0L0.105,-0ZM0.205,-0.249L0.16,-0.299L0.375,-0.299C0.439,-0.299 0.488,-0.312 0.521,-0.34C0.554,-0.367 0.57,-0.406 0.57,-0.456C0.57,-0.506 0.554,-0.545 0.521,-0.572C0.488,-0.6 0.439,-0.613 0.375,-0.613L0.16,-0.613L0.205,-0.663L0.205,-0.249Z" style="fill-rule:nonzero;"/>
                        </g>
                        <g transform="matrix(11.6481,0,0,11.6481,432.746,723.103)">
                            <path d="M-0.001,-0L0.316,-0.7L0.415,-0.7L0.733,-0L0.628,-0L0.345,-0.644L0.385,-0.644L0.102,-0L-0.001,-0ZM0.134,-0.175L0.161,-0.255L0.555,-0.255L0.584,-0.175L0.134,-0.175Z" style="fill-rule:nonzero;"/>
                        </g>
                        <g transform="matrix(11.6481,0,0,11.6481,441.271,723.103)">
                            <path d="M0.105,-0L0.105,-0.7L0.187,-0.7L0.65,-0.125L0.607,-0.125L0.607,-0.7L0.707,-0.7L0.707,-0L0.625,-0L0.162,-0.575L0.205,-0.575L0.205,-0L0.105,-0Z" style="fill-rule:nonzero;"/>
                        </g>
                        <g transform="matrix(11.6481,0,0,11.6481,450.552,723.103)">
                            <path d="M0.274,-0L0.274,-0.268L0.297,-0.206L-0.004,-0.7L0.103,-0.7L0.356,-0.283L0.298,-0.283L0.552,-0.7L0.651,-0.7L0.351,-0.206L0.373,-0.268L0.373,-0L0.274,-0Z" style="fill-rule:nonzero;"/>
                        </g>
                        <g transform="matrix(11.6481,0,0,11.6481,458.09,723.103)">
                        </g>
                    </g>
                </g>
                <g>
                    <g transform="matrix(0.659875,3.29915e-18,-3.29915e-18,0.659875,-320.742,-157.509)">
                        <path d="M1572.78,647.168L1573.88,648.971C1592.65,679.647 1610.81,716.942 1610.81,746.361C1610.81,782.983 1576,824.047 1533.12,824.047C1490.25,824.047 1455.44,782.983 1455.44,746.361C1455.44,685.518 1533.12,590.989 1533.12,590.989C1564.84,627.339 1565.32,665.453 1565.32,665.453C1565.32,665.453 1565.46,660.022 1572.78,647.168ZM1533.12,806.991C1563.09,806.991 1587.42,778.289 1587.42,752.692C1587.42,737.896 1580.31,719.675 1571.24,703.315C1558.75,680.773 1543.13,661.773 1543.13,661.773L1533.12,649.598L1523.12,661.773C1523.12,661.773 1507.5,680.773 1495,703.315C1485.93,719.675 1478.82,737.896 1478.82,752.692C1478.82,778.289 1503.15,806.991 1533.12,806.991ZM1533.12,794.04C1510.3,794.04 1491.78,772.184 1491.78,752.692C1491.78,720.308 1533.12,669.995 1533.12,669.995C1533.12,669.995 1574.47,720.308 1574.47,752.692C1574.47,772.184 1555.94,794.04 1533.12,794.04Z" style="fill:rgb(255,125,0);"/>
                    </g>
                    <g transform="matrix(0.351218,1.75597e-18,-1.75597e-18,0.351218,152.469,77.0389)">
                        <path d="M1533.12,824.047C1490.25,824.047 1455.44,782.983 1455.44,746.361C1455.44,685.518 1533.12,590.989 1533.12,590.989C1533.12,590.989 1610.81,685.518 1610.81,746.361C1610.81,782.983 1576,824.047 1533.12,824.047Z" style="fill:rgb(4,173,204);"/>
                    </g>
                </g>
            </g>
        </g>
    </g>
</svg>
