<?xml version="1.0" encoding="UTF-8" standalone="no"?>
<!DOCTYPE svg PUBLIC "-//W3C//DTD SVG 1.1//EN" "http://www.w3.org/Graphics/SVG/1.1/DTD/svg11.dtd">
<svg width="100%" height="100%" viewBox="0 0 172 269" version="1.1" xmlns="http://www.w3.org/2000/svg" xmlns:xlink="http://www.w3.org/1999/xlink" xml:space="preserve" xmlns:serif="http://www.serif.com/" style="fill-rule:evenodd;clip-rule:evenodd;stroke-linecap:round;stroke-linejoin:round;stroke-miterlimit:1.5;">
    <g transform="matrix(1,0,0,1,-151.101,-365.572)">
        <g transform="matrix(52.3472,0,0,39.0786,2202.54,6202.04)">
            <rect x="-42.076" y="-158.707" width="22.924" height="25.589" style="fill:none;"/>
            <g transform="matrix(0.0191032,0,0,0.0255894,-42.0755,-158.707)">
                <g transform="matrix(0.474759,0,0,0.474759,118.693,381.082)">
                    <g transform="matrix(0.936584,0,0,0.883201,71.9525,158.885)">
                        <path d="M188.42,305.661L269.384,305.661L269.384,329.048C269.384,334.584 265.146,339.078 259.926,339.078L188.42,339.078M188.42,339.078L116.914,339.078C111.694,339.078 107.456,334.584 107.456,329.048L107.456,305.661L187.953,305.661" style="fill:rgb(32,32,32);stroke:rgb(32,32,32);stroke-width:12.71px;"/>
                    </g>
                    <g transform="matrix(2.73018,0,0,2.73018,58.7999,-383.722)">
                        <path d="M44.322,297.623C44.274,301.775 43.768,302.869 52.282,304.781C70.45,308.86 46.11,332.439 35.089,321.124C34.207,320.218 34.047,315.647 29.816,316.255C28.082,316.505 8.619,319.927 13.336,307.936C14.797,304.221 23.217,305.07 27.407,304.142C35.564,302.335 36.568,299.002 37.274,296.488" style="fill:rgb(5,95,128);stroke:rgb(32,32,32);stroke-width:4.24px;"/>
                    </g>
                    <g transform="matrix(1.27549,0,0,1.27549,-70.4485,-56.1174)">
                        <rect x="250" y="99.784" width="18.418" height="280.432" style="fill:rgb(103,192,198);stroke:rgb(32,32,32);stroke-width:9.07px;"/>
                    </g>
                    <g transform="matrix(0.134854,0,0,0.226656,184.75,37.4669)">
                        <path d="M283.003,84.273L283.003,333.451C283.003,336.556 278.765,339.078 273.545,339.078L103.295,339.078C98.075,339.078 93.837,336.556 93.837,333.451L97.059,112.333L199.114,78.855L273.545,78.646C278.765,78.646 283.003,81.167 283.003,84.273Z" style="fill:white;stroke:rgb(32,32,32);stroke-width:62.05px;"/>
                    </g>
                    <g transform="matrix(0.134854,0,0,0.226656,261.279,37.4669)">
                        <path d="M283.003,84.273L283.003,333.451C283.003,336.556 278.765,339.078 273.545,339.078L103.295,339.078C98.075,339.078 93.837,336.556 93.837,333.451L93.837,84.273C93.837,81.167 98.075,78.646 103.295,78.646L273.545,78.646C278.765,78.646 283.003,81.167 283.003,84.273Z" style="fill:white;stroke:rgb(32,32,32);stroke-width:62.05px;"/>
                    </g>
                    <g transform="matrix(1.27549,0,0,1.27549,-83.2034,-56.1174)">
                        <path d="M260,99.784L325.011,99.784C335.813,99.784 344.583,108.554 344.583,119.356L344.583,360.644C344.583,371.446 335.813,380.216 325.011,380.216L260,380.216" style="fill:rgb(5,95,128);stroke:rgb(32,32,32);stroke-width:9.07px;"/>
                    </g>
                    <g transform="matrix(5.00204,0,0,3.13503,-90.2831,-147.076)">
                        <rect x="31.696" y="36.493" width="72.022" height="180.637" style="fill:none;"/>
                    </g>
                    <g transform="matrix(-1.27549,-1.56202e-16,1.56202e-16,-1.27549,579.714,581.627)">
                        <path d="M259.736,119.784L298.733,119.784L321.334,118.406L331.158,119.784C339.326,121.017 345.58,127.687 344.583,139.356L331.158,174.231L344.223,260L335.276,318.022L344.515,365.958C346.653,376.542 339.811,390.273 325.319,395.264L305.742,400.216L259.736,400.216" style="fill:white;stroke:rgb(32,32,32);stroke-width:9.07px;"/>
                    </g>
                    <g transform="matrix(2.10457,-0.531388,-0.531388,2.27883,-53.7242,-44.531)">
                        <path d="M130.348,127.969L136.848,142.409" style="fill:none;stroke:rgb(32,32,32);stroke-width:6.96px;"/>
                    </g>
                    <g transform="matrix(2.54566,0.467358,0.467358,1.54648,-234.681,103.5)">
                        <path d="M130.631,127.089L136.144,113.126" style="fill:none;stroke:rgb(32,32,32);stroke-width:4.52px;"/>
                    </g>
                    <g transform="matrix(2.73018,0,0,2.73018,58.7561,-383.037)">
                        <path d="M102.425,199.751C91.445,200.625 90.432,216.287 90.432,216.287C90.432,216.287 89.42,200.625 78.439,199.751C89.42,198.877 90.432,183.215 90.432,183.215C90.432,183.215 91.445,198.877 102.425,199.751Z" style="fill:white;stroke:rgb(32,32,32);stroke-width:4.24px;"/>
                    </g>
                    <g transform="matrix(1.27549,0,0,1.27549,-70.4485,-55.9612)">
                        <path d="M250,43.596L250,436.159" style="fill:none;stroke:rgb(220,84,53);stroke-width:18.14px;"/>
                    </g>
                </g>
            </g>
        </g>
    </g>
</svg>
