<?xml version="1.0" encoding="UTF-8" standalone="no"?>
<!DOCTYPE svg PUBLIC "-//W3C//DTD SVG 1.1//EN" "http://www.w3.org/Graphics/SVG/1.1/DTD/svg11.dtd">
<svg width="100%" height="100%" viewBox="0 0 38 57" version="1.1" xmlns="http://www.w3.org/2000/svg" xmlns:xlink="http://www.w3.org/1999/xlink" xml:space="preserve" xmlns:serif="http://www.serif.com/" style="fill-rule:evenodd;clip-rule:evenodd;stroke-linejoin:round;stroke-miterlimit:2;">
    <g transform="matrix(1,0,0,1,-134.258,-221.954)">
        <g transform="matrix(0.24036,1.20171e-18,-1.20171e-18,0.24036,-215.57,79.9041)">
            <path d="M1572.78,647.168L1573.88,648.971C1592.65,679.647 1610.81,716.942 1610.81,746.361C1610.81,782.983 1576,824.047 1533.12,824.047C1490.25,824.047 1455.44,782.983 1455.44,746.361C1455.44,685.518 1533.12,590.989 1533.12,590.989C1564.84,627.339 1565.32,665.453 1565.32,665.453C1565.32,665.453 1565.46,660.022 1572.78,647.168ZM1533.12,806.991C1563.09,806.991 1587.42,778.289 1587.42,752.692C1587.42,737.896 1580.31,719.675 1571.24,703.315C1558.75,680.773 1543.13,661.773 1543.13,661.773L1533.12,649.598L1523.12,661.773C1523.12,661.773 1507.5,680.773 1495,703.315C1485.93,719.675 1478.82,737.896 1478.82,752.692C1478.82,778.289 1503.15,806.991 1533.12,806.991ZM1533.12,794.04C1510.3,794.04 1491.78,772.184 1491.78,752.692C1491.78,720.308 1533.12,669.995 1533.12,669.995C1533.12,669.995 1574.47,720.308 1574.47,752.692C1574.47,772.184 1555.94,794.04 1533.12,794.04Z" style="fill:rgb(255,125,0);"/>
        </g>
        <g transform="matrix(0.127931,6.3961e-19,-6.3961e-19,0.127931,-43.2028,165.338)">
            <path d="M1533.12,824.047C1490.25,824.047 1455.44,782.983 1455.44,746.361C1455.44,685.518 1533.12,590.989 1533.12,590.989C1533.12,590.989 1610.81,685.518 1610.81,746.361C1610.81,782.983 1576,824.047 1533.12,824.047Z" style="fill:rgb(0,215,255);"/>
        </g>
    </g>
</svg>
